<?xml version="1.0" standalone="no"?>
<!DOCTYPE svg PUBLIC "-//W3C//DTD SVG 20010904//EN"
 "http://www.w3.org/TR/2001/REC-SVG-20010904/DTD/svg10.dtd">
<svg version="1.0" xmlns="http://www.w3.org/2000/svg"
 width="512.000000pt" height="512.000000pt" viewBox="0 0 512.000000 512.000000"
 preserveAspectRatio="xMidYMid meet">

<g transform="translate(0.000000,512.000000) scale(0.100000,-0.100000)"
fill="#000000" stroke="none">
<path d="M54 4857 c-19 -17 -27 -33 -27 -56 0 -29 23 -56 211 -244 l212 -212
0 -236 0 -235 -37 -13 c-50 -18 -126 -92 -155 -149 l-23 -47 0 -515 0 -515 27
-50 c33 -64 80 -108 140 -135 l48 -21 0 -567 c0 -604 1 -616 50 -718 29 -59
120 -157 177 -191 56 -33 154 -63 204 -63 43 0 89 34 89 65 0 33 -30 75 -58
80 -75 15 -136 39 -174 68 -50 38 -103 113 -118 165 -6 23 -10 247 -10 597 l0
561 37 13 c20 8 60 37 88 65 87 86 85 73 85 650 l0 501 -24 50 c-27 58 -97
127 -149 146 l-37 13 0 270 0 271 -238 237 c-257 258 -263 262 -318 215z m536
-1152 c15 -8 38 -27 49 -41 21 -26 21 -35 21 -512 0 -475 0 -485 -21 -519 -39
-63 -123 -82 -187 -43 -62 38 -62 41 -62 552 0 428 2 466 19 504 30 66 114 93
181 59z"/>
<path d="M2580 4862 c-165 -43 -294 -171 -344 -341 -11 -37 -16 -94 -16 -176
l0 -122 -72 -6 c-89 -8 -151 -38 -194 -95 -40 -51 -54 -115 -54 -237 l0 -95
-178 0 c-198 0 -257 -10 -353 -62 -70 -37 -147 -116 -183 -186 -59 -116 -56
-38 -56 -1604 0 -1430 0 -1438 21 -1493 25 -67 94 -141 164 -175 l50 -25 1350
0 1350 0 57 28 c62 30 115 83 150 149 l23 43 0 1486 0 1486 -42 85 c-66 133
-181 227 -314 257 -24 6 -126 11 -225 11 l-182 0 -4 128 c-3 105 -8 134 -26
168 -40 78 -109 120 -215 131 -34 3 -65 11 -69 17 -4 6 -8 52 -8 101 0 50 -7
120 -15 158 -58 273 -338 441 -615 369z m284 -178 c112 -54 175 -158 182 -297
3 -45 6 -101 8 -124 l4 -43 -339 0 -339 0 0 113 c0 129 13 183 58 249 88 128
279 174 426 102z m482 -657 c22 -26 24 -37 24 -133 l0 -104 -652 2 -653 3 -3
95 c-2 104 7 136 48 157 20 10 155 12 618 10 l594 -2 24 -28z m598 -418 c67
-25 133 -86 166 -154 l25 -50 3 -1446 2 -1446 -22 -33 c-13 -18 -36 -43 -51
-54 l-28 -21 -1324 0 -1324 0 -28 21 c-15 11 -38 36 -50 54 l-23 33 0 1428 0
1428 22 58 c28 76 104 152 178 181 55 21 61 21 1227 21 1160 1 1173 1 1227
-20z"/>
<path d="M1503 2853 c-51 -10 -71 -95 -33 -133 20 -20 33 -20 1245 -20 1212 0
1225 0 1245 20 28 28 27 90 -1 116 -20 18 -56 19 -1228 20 -663 1 -1216 -1
-1228 -3z"/>
<path d="M2419 2301 c-50 -51 -38 -79 90 -206 l91 -89 -105 -107 c-58 -58
-105 -114 -105 -123 0 -25 27 -73 45 -80 47 -18 68 -6 171 96 l104 102 104
-102 c87 -86 108 -102 135 -102 21 0 41 9 56 25 16 15 25 35 25 56 0 27 -16
48 -102 135 l-102 104 102 104 c102 103 114 124 96 171 -7 18 -55 45 -80 45
-9 0 -65 -47 -123 -105 l-107 -105 -89 91 c-127 128 -155 140 -206 90z"/>
<path d="M1503 1333 c-51 -10 -71 -95 -33 -133 20 -20 33 -20 1245 -20 1212 0
1225 0 1245 20 28 28 27 90 -1 116 -20 18 -56 19 -1228 20 -663 1 -1216 -1
-1228 -3z"/>
<path d="M4195 4655 c-143 -31 -284 -112 -385 -222 -74 -81 -151 -229 -175
-336 -15 -68 -15 -78 -1 -105 16 -31 34 -42 70 -42 43 0 63 26 81 105 36 165
139 303 281 377 94 50 169 68 277 68 170 0 287 -49 408 -170 51 -51 86 -98
107 -141 63 -128 62 -86 62 -1390 0 -798 -3 -1205 -11 -1245 -29 -163 -146
-316 -299 -393 -45 -22 -88 -41 -94 -41 -7 0 -23 -11 -36 -25 -31 -33 -31 -82
1 -108 36 -29 102 -19 203 31 144 72 277 216 339 368 54 135 52 70 52 1439 l0
1270 -28 82 c-58 172 -206 339 -371 418 -50 24 -123 50 -163 59 -86 19 -234
20 -318 1z"/>
</g>
</svg>
