<svg width="15" height="12" viewBox="0 0 15 12" fill="none" xmlns="http://www.w3.org/2000/svg">
<path d="M5.83301 5.16667L13.1663 5.76667C13.3313 5.79911 13.478 5.89271 13.5769 6.0287C13.6758 6.16469 13.7196 6.33304 13.6997 6.50001L13.2563 9.27201C13.2313 9.42863 13.1512 9.57119 13.0305 9.67407C12.9097 9.77696 12.7563 9.83343 12.5977 9.83334H12.4997" stroke="#09090B" stroke-linecap="round" stroke-linejoin="round"/>
<path d="M9.83333 9.83334H6.5" stroke="#09090B" stroke-linecap="round" stroke-linejoin="round"/>
<path d="M11.1667 1.16667C10.9899 1.16667 10.8203 1.23691 10.6953 1.36193C10.5702 1.48696 10.5 1.65653 10.5 1.83334V5.54867" stroke="#09090B" stroke-linecap="round" stroke-linejoin="round"/>
<path d="M1.1665 0.5H6.58584C6.74676 0.500092 6.90222 0.558389 7.02352 0.664132C7.14483 0.769875 7.22379 0.915927 7.24584 1.07533L7.83317 5.33067" stroke="#09090B" stroke-linecap="round" stroke-linejoin="round"/>
<path d="M1.83301 5.16667V0.5" stroke="#09090B" stroke-linecap="round" stroke-linejoin="round"/>
<path d="M3.83301 7.83334H3.83967" stroke="#09090B" stroke-linecap="round" stroke-linejoin="round"/>
<path d="M4.5 4.56667V0.5" stroke="#09090B" stroke-linecap="round" stroke-linejoin="round"/>
<path d="M11.1663 11.1667C11.9027 11.1667 12.4997 10.5697 12.4997 9.83333C12.4997 9.09695 11.9027 8.5 11.1663 8.5C10.43 8.5 9.83301 9.09695 9.83301 9.83333C9.83301 10.5697 10.43 11.1667 11.1663 11.1667Z" stroke="#09090B" stroke-linecap="round" stroke-linejoin="round"/>
<path d="M3.83333 11.1667C5.67428 11.1667 7.16667 9.67428 7.16667 7.83333C7.16667 5.99238 5.67428 4.5 3.83333 4.5C1.99238 4.5 0.5 5.99238 0.5 7.83333C0.5 9.67428 1.99238 11.1667 3.83333 11.1667Z" stroke="#09090B" stroke-linecap="round" stroke-linejoin="round"/>
</svg>
