<svg width="15" height="15" viewBox="0 0 15 15" fill="none" xmlns="http://www.w3.org/2000/svg">
<path d="M7.17139 4.5L11.1714 2.5L7.17139 0.5V7.16667" stroke="#09090B" stroke-linecap="round" stroke-linejoin="round"/>
<path d="M4.50463 7.16L0.837965 9.25333C0.735367 9.31147 0.650028 9.3958 0.590655 9.49769C0.531282 9.59958 0.5 9.7154 0.5 9.83333C0.5 9.95126 0.531282 10.0671 0.590655 10.169C0.650028 10.2709 0.735367 10.3552 0.837965 10.4133L6.50463 13.6533C6.70732 13.7704 6.93725 13.832 7.1713 13.832C7.40535 13.832 7.63527 13.7704 7.83797 13.6533L13.5046 10.4133C13.6072 10.3552 13.6926 10.2709 13.7519 10.169C13.8113 10.0671 13.8426 9.95126 13.8426 9.83333C13.8426 9.7154 13.8113 9.59958 13.7519 9.49769C13.6926 9.3958 13.6072 9.31147 13.5046 9.25333L9.83797 7.16666" stroke="#09090B" stroke-linecap="round" stroke-linejoin="round"/>
<path d="M3.49805 7.73333L10.8447 11.9333" stroke="#09090B" stroke-linecap="round" stroke-linejoin="round"/>
<path d="M10.8449 7.73333L3.50488 11.9333" stroke="#09090B" stroke-linecap="round" stroke-linejoin="round"/>
</svg>
