<svg width="15" height="15" viewBox="0 0 15 15" fill="none" xmlns="http://www.w3.org/2000/svg">
<path d="M7.16667 13.1268C8.16667 13.1268 9 13.8334 9.83333 13.8334C11.8333 13.8334 13.8333 8.50011 13.8333 5.68677C13.8106 4.82325 13.4475 4.00372 12.8231 3.4068C12.1987 2.80988 11.3637 2.48397 10.5 2.50011C9.02 2.50011 7.83333 3.46011 7.16667 3.83344C6.5 3.46011 5.31333 2.50011 3.83333 2.50011C2.96917 2.48221 2.13313 2.80754 1.50835 3.40483C0.883574 4.00212 0.520983 4.82268 0.5 5.68677C0.5 8.50011 2.5 13.8334 4.5 13.8334C5.33333 13.8334 6.16667 13.1268 7.16667 13.1268Z" stroke="#09090B" stroke-linecap="round" stroke-linejoin="round"/>
<path d="M5.83301 0.500107C6.49967 0.83344 7.16634 1.83344 7.16634 3.83344" stroke="#09090B" stroke-linecap="round" stroke-linejoin="round"/>
</svg>
